Poster: 
http://imgh.us/theamazingspiderman2012.jpg

Info:

Format : AVI
Format/Info : Audio Video Interleave
File size : 1.59 GiB
Duration : 2h 3mn
Overall bit rate : 1 845 Kbps
Writing library : VirtualDub build 34703/release

Video
ID : 0
Format : MPEG-4 Visual
Format profile : Advanced Simple@L5
Format settings, BVOP : 2
Format settings, QPel : Yes
Format settings, GMC : No warppoints
Format settings, Matrix : Default (H.263)
Muxing mode : Packed bitstream
Codec ID : XVID
Codec ID/Hint : XviD
Duration : 2h 3mn
Bit rate : 1 707 Kbps
Width : 720 pixels
Height : 288 pixels
Display aspect ratio : 2.500
Frame rate : 25.000 fps
Color space : YUV
Chroma subsampling : 4:2:0
Bit depth : 8 bits
Scan type : Progressive
Compression mode : Lossy
Bits/(Pixel*Frame) : 0.329
Stream size : 1.47 GiB (93%)
Writing library : XviD 1.2.1 (UTC 2008-12-04)

Audio
ID : 1
Format : AC-3
Format/Info : Audio Coding 3
Mode extension : CM (complete main)
Format settings, Endianness : Big
Codec ID : 2000
Duration : 2h 3mn
Bit rate mode : Constant
Bit rate : 128 Kbps
Channel(s) : 2 channels
Channel positions : Front: L R
Sampling rate : 48.0 KHz
Bit depth : 16 bits
Compression mode : Lossy
Stream size : 113 MiB (7%)
Alignment : Aligned on interleaves
Interleave, duration : 40 ms (1.00 video frame)
Interleave, preload duration : 512 ms


Thx Hive

CM8 Doing It Right The First Time 
Sources:
Video: 26K CAM - Thx
Video: New Source CAM from a friend - Thx
Audio: DrunkenNinja LiNe Audio - Thx 

Encode:
Video: 720x288 @bitrate 1700
Audio: English AC-3 @128 Kbps
Sample: Yes, included

Notes:
Split Cams into Pieces, Fixed AR, FPS and BitRate and then cleaned video and merged.
Then on to syncing very nice Audio. Still a few bits of movie missing, not available at time of Encode.
Got very nice, dark scenes are clear and movie is now very watchable. Audio is outstanding, Great job DN.

Big Thx to SeeN for the great sync job - Cheers M8

SCREENS: 
http://imgh.us/The_Amazing_Spiderman_2012_TS_XviD_AC3_Hive_-_CM8-009.jpg 
http://imgh.us/The_Amazing_Spiderman_2012_TS_XviD_AC3_Hive_-_CM8-010.jpg 
http://imgh.us/The_Amazing_Spiderman_2012_TS_XviD_AC3_Hive_-_CM8-012.jpg 
http://imgh.us/The_Amazing_Spiderman_2012_TS_XviD_AC3_Hive_-_CM8-013.jpg 
http://imgh.us/The_Amazing_Spiderman_2012_TS_XviD_AC3_Hive_-_CM8-014.jpg 
http://imgh.us/The_Amazing_Spiderman_2012_TS_XviD_AC3_Hive_-_CM8-016.jpg
